<svg xmlns="http://www.w3.org/2000/svg" width="26.927" height="26.927" viewBox="0 0 26.927 26.927">
  <path id="Icon_material-person-outline" data-name="Icon material-person-outline" d="M19.463,9.2a3.534,3.534,0,1,1-3.534,3.534A3.534,3.534,0,0,1,19.463,9.2m0,15.146c5,0,10.266,2.457,10.266,3.534v1.851H9.2V27.878c0-1.077,5.268-3.534,10.266-3.534M19.463,6A6.732,6.732,0,1,0,26.2,12.732,6.73,6.73,0,0,0,19.463,6Zm0,15.146C14.97,21.146,6,23.4,6,27.878v5.049H32.927V27.878C32.927,23.4,23.957,21.146,19.463,21.146Z" transform="translate(-6 -6)" fill="#fff"/>
</svg>
