<svg xmlns="http://www.w3.org/2000/svg" width="31.695" height="21.13" viewBox="0 0 31.695 21.13">
  <path id="Icon_awesome-eye" data-name="Icon awesome-eye" d="M31.5,14.262A17.649,17.649,0,0,0,15.848,4.5,17.652,17.652,0,0,0,.192,14.262a1.78,1.78,0,0,0,0,1.606A17.649,17.649,0,0,0,15.848,25.63,17.652,17.652,0,0,0,31.5,15.868,1.78,1.78,0,0,0,31.5,14.262ZM15.848,22.989a7.924,7.924,0,1,1,7.924-7.924A7.924,7.924,0,0,1,15.848,22.989Zm0-13.206a5.245,5.245,0,0,0-1.393.209,2.633,2.633,0,0,1-3.681,3.681,5.27,5.27,0,1,0,5.074-3.89Z" transform="translate(0 -4.5)" fill="#fff"/>
</svg>
