<svg id="Group_49" data-name="Group 49" xmlns="http://www.w3.org/2000/svg" xmlns:xlink="http://www.w3.org/1999/xlink" width="151.5" height="74.616" viewBox="0 0 151.5 74.616">
  <defs>
    <clipPath id="clip-path">
      <rect id="Rectangle_45" data-name="Rectangle 45" width="151.5" height="74.616" fill="none"/>
    </clipPath>
  </defs>
  <g id="Group_48" data-name="Group 48" clip-path="url(#clip-path)">
    <path id="Path_164" data-name="Path 164" d="M11.34,455.742a5.67,5.67,0,1,1-5.67-5.67,5.67,5.67,0,0,1,5.67,5.67" transform="translate(0 -386.796)" fill="#6c5dd4"/>
    <path id="Path_165" data-name="Path 165" d="M177.5,455.742a5.67,5.67,0,1,1-5.67-5.67,5.67,5.67,0,0,1,5.67,5.67" transform="translate(-142.796 -386.796)" fill="#6c5dd4"/>
    <path id="Path_166" data-name="Path 166" d="M343.651,455.742a5.67,5.67,0,1,1-5.67-5.67,5.67,5.67,0,0,1,5.67,5.67" transform="translate(-285.591 -386.796)" fill="#6c5dd4"/>
    <path id="Path_167" data-name="Path 167" d="M509.807,455.742a5.67,5.67,0,1,1-5.67-5.67,5.67,5.67,0,0,1,5.67,5.67" transform="translate(-428.387 -386.796)" fill="#6c5dd4"/>
    <path id="Path_168" data-name="Path 168" d="M675.962,455.742a5.67,5.67,0,1,1-5.67-5.67,5.67,5.67,0,0,1,5.67,5.67" transform="translate(-571.182 -386.796)" fill="#6c5dd4"/>
    <path id="Path_169" data-name="Path 169" d="M842.118,455.742a5.67,5.67,0,1,1-5.67-5.67,5.67,5.67,0,0,1,5.67,5.67" transform="translate(-713.978 -386.796)" fill="#6c5dd4"/>
    <path id="Path_170" data-name="Path 170" d="M1008.274,455.742a5.67,5.67,0,1,1-5.67-5.67,5.67,5.67,0,0,1,5.67,5.67" transform="translate(-856.774 -386.796)" fill="#6c5dd4"/>
    <path id="Path_171" data-name="Path 171" d="M11.34,305.718a5.67,5.67,0,1,1-5.67-5.67,5.67,5.67,0,0,1,5.67,5.67" transform="translate(0 -257.864)" fill="#6c5dd4"/>
    <path id="Path_172" data-name="Path 172" d="M177.5,305.718a5.67,5.67,0,1,1-5.67-5.67,5.67,5.67,0,0,1,5.67,5.67" transform="translate(-142.796 -257.864)" fill="#6c5dd4"/>
    <path id="Path_173" data-name="Path 173" d="M343.651,305.718a5.67,5.67,0,1,1-5.67-5.67,5.67,5.67,0,0,1,5.67,5.67" transform="translate(-285.591 -257.864)" fill="#6c5dd4"/>
    <path id="Path_174" data-name="Path 174" d="M509.807,305.718a5.67,5.67,0,1,1-5.67-5.67,5.67,5.67,0,0,1,5.67,5.67" transform="translate(-428.387 -257.864)" fill="#6c5dd4"/>
    <path id="Path_175" data-name="Path 175" d="M675.962,305.718a5.67,5.67,0,1,1-5.67-5.67,5.67,5.67,0,0,1,5.67,5.67" transform="translate(-571.182 -257.864)" fill="#6c5dd4"/>
    <path id="Path_176" data-name="Path 176" d="M842.118,305.718a5.67,5.67,0,1,1-5.67-5.67,5.67,5.67,0,0,1,5.67,5.67" transform="translate(-713.978 -257.864)" fill="#6c5dd4"/>
    <path id="Path_177" data-name="Path 177" d="M1008.274,305.718a5.67,5.67,0,1,1-5.67-5.67,5.67,5.67,0,0,1,5.67,5.67" transform="translate(-856.774 -257.864)" fill="#6c5dd4"/>
    <path id="Path_178" data-name="Path 178" d="M11.34,155.694a5.67,5.67,0,1,1-5.67-5.67,5.67,5.67,0,0,1,5.67,5.67" transform="translate(0 -128.932)" fill="#6c5dd4"/>
    <path id="Path_179" data-name="Path 179" d="M177.5,155.694a5.67,5.67,0,1,1-5.67-5.67,5.67,5.67,0,0,1,5.67,5.67" transform="translate(-142.796 -128.932)" fill="#6c5dd4"/>
    <path id="Path_180" data-name="Path 180" d="M343.651,155.694a5.67,5.67,0,1,1-5.67-5.67,5.67,5.67,0,0,1,5.67,5.67" transform="translate(-285.591 -128.932)" fill="#6c5dd4"/>
    <path id="Path_181" data-name="Path 181" d="M509.807,155.694a5.67,5.67,0,1,1-5.67-5.67,5.67,5.67,0,0,1,5.67,5.67" transform="translate(-428.387 -128.932)" fill="#6c5dd4"/>
    <path id="Path_182" data-name="Path 182" d="M675.962,155.694a5.67,5.67,0,1,1-5.67-5.67,5.67,5.67,0,0,1,5.67,5.67" transform="translate(-571.182 -128.932)" fill="#6c5dd4"/>
    <path id="Path_183" data-name="Path 183" d="M842.118,155.694a5.67,5.67,0,1,1-5.67-5.67,5.67,5.67,0,0,1,5.67,5.67" transform="translate(-713.978 -128.932)" fill="#6c5dd4"/>
    <path id="Path_184" data-name="Path 184" d="M1008.274,155.694a5.67,5.67,0,1,1-5.67-5.67,5.67,5.67,0,0,1,5.67,5.67" transform="translate(-856.774 -128.932)" fill="#6c5dd4"/>
    <path id="Path_185" data-name="Path 185" d="M11.34,5.67A5.67,5.67,0,1,1,5.67,0a5.67,5.67,0,0,1,5.67,5.67" fill="#6c5dd4"/>
    <path id="Path_186" data-name="Path 186" d="M177.5,5.67A5.67,5.67,0,1,1,171.826,0a5.67,5.67,0,0,1,5.67,5.67" transform="translate(-142.796)" fill="#6c5dd4"/>
    <path id="Path_187" data-name="Path 187" d="M343.651,5.67A5.67,5.67,0,1,1,337.981,0a5.67,5.67,0,0,1,5.67,5.67" transform="translate(-285.591)" fill="#6c5dd4"/>
    <path id="Path_188" data-name="Path 188" d="M509.807,5.67A5.67,5.67,0,1,1,504.137,0a5.67,5.67,0,0,1,5.67,5.67" transform="translate(-428.387)" fill="#6c5dd4"/>
    <path id="Path_189" data-name="Path 189" d="M675.962,5.67A5.67,5.67,0,1,1,670.292,0a5.67,5.67,0,0,1,5.67,5.67" transform="translate(-571.182)" fill="#6c5dd4"/>
    <path id="Path_190" data-name="Path 190" d="M842.118,5.67A5.67,5.67,0,1,1,836.448,0a5.67,5.67,0,0,1,5.67,5.67" transform="translate(-713.978)" fill="#6c5dd4"/>
    <path id="Path_191" data-name="Path 191" d="M1008.274,5.67A5.67,5.67,0,1,1,1002.6,0a5.67,5.67,0,0,1,5.67,5.67" transform="translate(-856.774)" fill="#6c5dd4"/>
  </g>
</svg>
