<svg xmlns="http://www.w3.org/2000/svg" xmlns:xlink="http://www.w3.org/1999/xlink" width="64.834" height="131.64" viewBox="0 0 64.834 131.64">
  <defs>
    <clipPath id="clip-path">
      <rect id="Rectangle_45" data-name="Rectangle 45" width="131.64" height="64.834" fill="none"/>
    </clipPath>
  </defs>
  <g id="Group_50" data-name="Group 50" transform="translate(64.834) rotate(90)">
    <g id="Group_48" data-name="Group 48" clip-path="url(#clip-path)">
      <path id="Path_164" data-name="Path 164" d="M9.853,455a4.927,4.927,0,1,1-4.927-4.927A4.927,4.927,0,0,1,9.853,455" transform="translate(0 -395.091)" fill="#6c5dd4"/>
      <path id="Path_165" data-name="Path 165" d="M176.009,455a4.927,4.927,0,1,1-4.927-4.927A4.927,4.927,0,0,1,176.009,455" transform="translate(-145.858 -395.091)" fill="#6c5dd4"/>
      <path id="Path_166" data-name="Path 166" d="M342.164,455a4.927,4.927,0,1,1-4.927-4.927A4.927,4.927,0,0,1,342.164,455" transform="translate(-291.716 -395.091)" fill="#6c5dd4"/>
      <path id="Path_167" data-name="Path 167" d="M508.32,455a4.927,4.927,0,1,1-4.927-4.927A4.927,4.927,0,0,1,508.32,455" transform="translate(-437.574 -395.091)" fill="#6c5dd4"/>
      <path id="Path_168" data-name="Path 168" d="M674.475,455a4.927,4.927,0,1,1-4.927-4.927A4.927,4.927,0,0,1,674.475,455" transform="translate(-583.431 -395.091)" fill="#6c5dd4"/>
      <path id="Path_169" data-name="Path 169" d="M840.631,455a4.927,4.927,0,1,1-4.927-4.927A4.927,4.927,0,0,1,840.631,455" transform="translate(-729.289 -395.091)" fill="#6c5dd4"/>
      <path id="Path_170" data-name="Path 170" d="M1006.787,455a4.927,4.927,0,1,1-4.927-4.927,4.927,4.927,0,0,1,4.927,4.927" transform="translate(-875.148 -395.091)" fill="#6c5dd4"/>
      <path id="Path_171" data-name="Path 171" d="M9.853,304.975a4.927,4.927,0,1,1-4.927-4.927,4.927,4.927,0,0,1,4.927,4.927" transform="translate(0 -263.394)" fill="#6c5dd4"/>
      <path id="Path_172" data-name="Path 172" d="M176.009,304.975a4.927,4.927,0,1,1-4.927-4.927,4.927,4.927,0,0,1,4.927,4.927" transform="translate(-145.858 -263.394)" fill="#6c5dd4"/>
      <path id="Path_173" data-name="Path 173" d="M342.164,304.975a4.927,4.927,0,1,1-4.927-4.927,4.927,4.927,0,0,1,4.927,4.927" transform="translate(-291.716 -263.394)" fill="#6c5dd4"/>
      <path id="Path_174" data-name="Path 174" d="M508.32,304.975a4.927,4.927,0,1,1-4.927-4.927,4.927,4.927,0,0,1,4.927,4.927" transform="translate(-437.574 -263.394)" fill="#6c5dd4"/>
      <path id="Path_175" data-name="Path 175" d="M674.475,304.975a4.927,4.927,0,1,1-4.927-4.927,4.927,4.927,0,0,1,4.927,4.927" transform="translate(-583.431 -263.394)" fill="#6c5dd4"/>
      <path id="Path_176" data-name="Path 176" d="M840.631,304.975a4.927,4.927,0,1,1-4.927-4.927,4.927,4.927,0,0,1,4.927,4.927" transform="translate(-729.289 -263.394)" fill="#6c5dd4"/>
      <path id="Path_177" data-name="Path 177" d="M1006.787,304.975a4.927,4.927,0,1,1-4.927-4.927,4.927,4.927,0,0,1,4.927,4.927" transform="translate(-875.148 -263.394)" fill="#6c5dd4"/>
      <path id="Path_178" data-name="Path 178" d="M9.853,154.951a4.927,4.927,0,1,1-4.927-4.927,4.927,4.927,0,0,1,4.927,4.927" transform="translate(0 -131.697)" fill="#6c5dd4"/>
      <path id="Path_179" data-name="Path 179" d="M176.009,154.951a4.927,4.927,0,1,1-4.927-4.927,4.927,4.927,0,0,1,4.927,4.927" transform="translate(-145.858 -131.697)" fill="#6c5dd4"/>
      <path id="Path_180" data-name="Path 180" d="M342.164,154.951a4.927,4.927,0,1,1-4.927-4.927,4.927,4.927,0,0,1,4.927,4.927" transform="translate(-291.716 -131.697)" fill="#6c5dd4"/>
      <path id="Path_181" data-name="Path 181" d="M508.32,154.951a4.927,4.927,0,1,1-4.927-4.927,4.927,4.927,0,0,1,4.927,4.927" transform="translate(-437.574 -131.697)" fill="#6c5dd4"/>
      <path id="Path_182" data-name="Path 182" d="M674.475,154.951a4.927,4.927,0,1,1-4.927-4.927,4.927,4.927,0,0,1,4.927,4.927" transform="translate(-583.431 -131.697)" fill="#6c5dd4"/>
      <path id="Path_183" data-name="Path 183" d="M840.631,154.951a4.927,4.927,0,1,1-4.927-4.927,4.927,4.927,0,0,1,4.927,4.927" transform="translate(-729.289 -131.697)" fill="#6c5dd4"/>
      <path id="Path_184" data-name="Path 184" d="M1006.787,154.951a4.927,4.927,0,1,1-4.927-4.927,4.927,4.927,0,0,1,4.927,4.927" transform="translate(-875.148 -131.697)" fill="#6c5dd4"/>
      <path id="Path_185" data-name="Path 185" d="M9.853,4.927A4.927,4.927,0,1,1,4.927,0,4.927,4.927,0,0,1,9.853,4.927" fill="#6c5dd4"/>
      <path id="Path_186" data-name="Path 186" d="M176.009,4.927A4.927,4.927,0,1,1,171.083,0a4.927,4.927,0,0,1,4.927,4.927" transform="translate(-145.858)" fill="#6c5dd4"/>
      <path id="Path_187" data-name="Path 187" d="M342.164,4.927A4.927,4.927,0,1,1,337.238,0a4.927,4.927,0,0,1,4.927,4.927" transform="translate(-291.716)" fill="#6c5dd4"/>
      <path id="Path_188" data-name="Path 188" d="M508.32,4.927A4.927,4.927,0,1,1,503.394,0a4.927,4.927,0,0,1,4.927,4.927" transform="translate(-437.574)" fill="#6c5dd4"/>
      <path id="Path_189" data-name="Path 189" d="M674.475,4.927A4.927,4.927,0,1,1,669.549,0a4.927,4.927,0,0,1,4.927,4.927" transform="translate(-583.431)" fill="#6c5dd4"/>
      <path id="Path_190" data-name="Path 190" d="M840.631,4.927A4.927,4.927,0,1,1,835.7,0a4.927,4.927,0,0,1,4.927,4.927" transform="translate(-729.289)" fill="#6c5dd4"/>
      <path id="Path_191" data-name="Path 191" d="M1006.787,4.927A4.927,4.927,0,1,1,1001.861,0a4.927,4.927,0,0,1,4.927,4.927" transform="translate(-875.148)" fill="#6c5dd4"/>
    </g>
  </g>
</svg>
