<svg xmlns="http://www.w3.org/2000/svg" width="50" height="50" viewBox="0 0 50 50">
  <g id="Group_147" data-name="Group 147" transform="translate(-4993 -1656)">
    <rect id="Rectangle_106" data-name="Rectangle 106" width="50" height="50" rx="10" transform="translate(4993 1656)" fill="#6c5dd4"/>
    <path id="Icon_ionic-logo-twitter" data-name="Icon ionic-logo-twitter" d="M34.594,7.7a13.763,13.763,0,0,1-3.909,1.076,6.831,6.831,0,0,0,3-3.769,13.527,13.527,0,0,1-4.324,1.652,6.805,6.805,0,0,0-11.777,4.655,6.665,6.665,0,0,0,.176,1.554A19.292,19.292,0,0,1,3.72,5.745a6.821,6.821,0,0,0,2.116,9.1,6.649,6.649,0,0,1-3.094-.851v.084a6.813,6.813,0,0,0,5.463,6.68A6.852,6.852,0,0,1,6.413,21a6.422,6.422,0,0,1-1.28-.127A6.818,6.818,0,0,0,11.5,25.6a13.648,13.648,0,0,1-8.459,2.918,13.8,13.8,0,0,1-1.624-.1,19.028,19.028,0,0,0,10.42,3.08c12.537,0,19.385-10.385,19.385-19.392,0-.3-.007-.591-.021-.879A13.858,13.858,0,0,0,34.594,7.7Z" transform="translate(4999.587 1663.5)" fill="#fff"/>
  </g>
</svg>
