<svg xmlns="http://www.w3.org/2000/svg" width="44.608" height="44.607" viewBox="0 0 44.608 44.607">
  <g id="Icon_ionic-ios-close-circle-outline" data-name="Icon ionic-ios-close-circle-outline" transform="translate(-2.875 -2.875)">
    <path id="Path_410" data-name="Path 410" d="M28.662,26.3l-5.524-5.524,5.524-5.524a1.675,1.675,0,0,0-2.369-2.369L20.769,18.4l-5.524-5.524a1.675,1.675,0,0,0-2.369,2.369L18.4,20.771,12.875,26.3a1.62,1.62,0,0,0,0,2.369,1.664,1.664,0,0,0,2.369,0l5.524-5.524,5.524,5.524a1.683,1.683,0,0,0,2.369,0A1.664,1.664,0,0,0,28.662,26.3Z" transform="translate(4.41 4.408)" fill="#d62020" stroke="#d62020" stroke-width="1"/>
    <path id="Path_411" data-name="Path 411" d="M25.179,6.31a18.861,18.861,0,1,1-13.344,5.524A18.744,18.744,0,0,1,25.179,6.31m0-2.935a21.8,21.8,0,1,0,21.8,21.8,21.8,21.8,0,0,0-21.8-21.8Z" fill="#d62020" stroke="#d62020" stroke-width="1"/>
  </g>
</svg>
